<svg id="ilu" xmlns="http://www.w3.org/2000/svg" xmlns:xlink="http://www.w3.org/1999/xlink" viewBox="0 0 587.731 472.794"><defs><linearGradient id="linear-gradient" x1="512.075" y1="458.351" x2="534.51" y2="458.351" gradientTransform="translate(683.296 -218.642) rotate(62.082)" gradientUnits="userSpaceOnUse"><stop offset="0" stop-color="#f39233"/><stop offset="1" stop-color="#f39233"/></linearGradient></defs><title>index-hero-poskyt</title><polygon points="381.244 388.544 278.468 388.544 272.211 452.769 387.501 452.769 381.244 388.544" style="fill:#66bce0"/><rect x="102.856" y="75.669" width="454" height="321.208" rx="20" ry="20" style="fill:#2d3f63"/><path d="M556.856,356.547v20.33a20,20,0,0,1-20,20h-414a20,20,0,0,1-20-20v-20.33Z" style="fill:#107aa7"/><ellipse cx="329.856" cy="460.794" rx="170" ry="12" style="fill:#60b1f5"/><rect x="237.606" y="447.878" width="184.5" height="13.5" rx="3" ry="3" style="fill:#107aa7"/><rect x="119.856" y="93.878" width="420" height="240" style="fill:#d9dee3"/><path d="M252.129,256.624c0,2.288.033,4.576-.014,6.862a1.555,1.555,0,0,0,.8,1.491,60.287,60.287,0,0,1,10.658,8.9,90.236,90.236,0,0,1,6.485,7.763,2.4,2.4,0,0,0,1.378.95,218.01,218.01,0,0,1,28.833,9.774,88.607,88.607,0,0,1,18.576,10.279c3.511,2.648,6.675,5.621,8.725,9.608a23.482,23.482,0,0,1,2.071,8.484,58.575,58.575,0,0,1-.207,11.732c-.045.473-.128.943-.193,1.414H125.871c-.364-2.6-.71-5.19-.9-7.809a48.608,48.608,0,0,1,.173-8.577,20.3,20.3,0,0,1,1.408-6.355,20.977,20.977,0,0,1,5.184-6.911c6.668-6.064,14.618-9.972,22.828-13.427a169.949,169.949,0,0,1,21.883-7.416,35.27,35.27,0,0,1,3.876-.913A2.917,2.917,0,0,0,182.3,281.2a85.62,85.62,0,0,1,9.242-10.391,46.081,46.081,0,0,1,8.329-6.4q0,7.429-.005,14.858a4.21,4.21,0,0,0,.733,2.4,15.529,15.529,0,0,0,4.711,4.162c3.515,2.345,7.244,4.353,10.7,6.8a22.791,22.791,0,0,1,7.878,9.835,33.306,33.306,0,0,1,2.145,8.234c.1-.683.149-1.355.263-2.026,1.275-7.509,5.428-13.1,11.563-17.35,2.827-1.959,5.894-3.55,8.685-5.573a19.875,19.875,0,0,0,4.827-4.52c.3-.431.822-.989.48-1.457-.256-.349-.952-.06-1.421.05a46.3,46.3,0,0,1-12.418,1.189,44.224,44.224,0,0,1-7.784-.926,43.48,43.48,0,0,1-14.516-6.141,46.846,46.846,0,0,1-12.846-12.283,14.489,14.489,0,0,1-2.3-4.265,9.032,9.032,0,0,1,1.049,1.031c5.08,5.657,11.151,9.62,18.745,10.989a30.331,30.331,0,0,0,12.448-.252,31.913,31.913,0,0,0,10.562-4.7,38.935,38.935,0,0,0,6.113-5.219C250.35,258.359,250.9,257.139,252.129,256.624Z" style="fill:#606060"/><path d="M252.129,256.624c-1.228.515-1.778,1.735-2.64,2.618a38.935,38.935,0,0,1-6.113,5.219,31.913,31.913,0,0,1-10.562,4.7,30.331,30.331,0,0,1-12.448.252c-7.594-1.369-13.666-5.331-18.745-10.989a9.032,9.032,0,0,0-1.049-1.031,14.489,14.489,0,0,0,2.3,4.265,46.846,46.846,0,0,0,12.846,12.283,43.48,43.48,0,0,0,14.516,6.141,44.224,44.224,0,0,0,7.784.926,46.3,46.3,0,0,0,12.418-1.189c.468-.11,1.165-.4,1.421-.05.342.468-.177,1.025-.48,1.457a19.875,19.875,0,0,1-4.827,4.52c-2.791,2.023-5.857,3.614-8.685,5.573-6.135,4.25-10.288,9.842-11.563,17.35-.114.671-.167,1.343-.263,2.026a33.306,33.306,0,0,0-2.145-8.234,22.791,22.791,0,0,0-7.878-9.835c-3.455-2.443-7.184-4.452-10.7-6.8a15.529,15.529,0,0,1-4.711-4.162,4.21,4.21,0,0,1-.733-2.4q.017-7.429.005-14.858c0-2.354-.027-4.71.021-7.063a3.137,3.137,0,0,0-.682-2.077,44.7,44.7,0,0,1-6.782-13.279,32.681,32.681,0,0,1-1.776-8.34c-.029-.467-.135-.751-.673-.5-1.527.707-2.736.059-3.756-1a15.837,15.837,0,0,1-3.152-5.207,38.057,38.057,0,0,1-2.394-9.151c-.534-3.969-.783-7.979.35-11.92.431-1.5.988-2.914,2.7-3.4.96,2.769,1.4,5.672,2.187,8.488,1.005,3.607,1.956,7.229,2.934,10.843.137.5.429.639.922.4a3.556,3.556,0,0,0,1.674-2.106,15.2,15.2,0,0,0,.821-4.808c.146-3.166.036-6.337.174-9.51a90.364,90.364,0,0,1,1.323-12.877c1.01-5.35,2.413-10.534,6.241-14.758a24.72,24.72,0,0,1,12.194-7.65,51.95,51.95,0,0,1,11.419-1.413c4.908-.183,9.824.158,14.733-.206a11.86,11.86,0,0,0,7.684-3.37,20.843,20.843,0,0,0,3.049-4.44l-.009-.007c-.132,1.8-.333,3.594-.38,5.395a46.212,46.212,0,0,0,.554,7.937,37.366,37.366,0,0,0,8.223,18.984,7.945,7.945,0,0,1,2.036,3.6,42.188,42.188,0,0,1,.364,9.694,68.335,68.335,0,0,0,.1,11.031,6.325,6.325,0,0,0,1.617,4c.563.552.8.5,1.115-.253a101.021,101.021,0,0,0,3.819-11.653c.667-2.354,1.009-4.789,1.793-7.112,1.548.546,1.905,1.971,2.264,3.288a26.06,26.06,0,0,1,.478,10.7,43.157,43.157,0,0,1-2.484,10.173c-.952,2.344-2.017,4.629-4.2,6.153a1.928,1.928,0,0,1-2.277.191c-.609-.395-.639-.157-.733.366a70.349,70.349,0,0,1-2.281,9.913,40.834,40.834,0,0,1-5.288,10.427C253.2,254.749,252.31,255.484,252.129,256.624Zm-51.847.124h-.089a1.156,1.156,0,0,0,.033.166c0,.008.059,0,.09,0Z" style="fill:#edcda7"/><path d="M249.087,161.059a20.843,20.843,0,0,1-3.049,4.44,11.86,11.86,0,0,1-7.684,3.37c-4.908.364-9.824.022-14.733.206a51.95,51.95,0,0,0-11.419,1.413,24.72,24.72,0,0,0-12.194,7.65c-3.828,4.225-5.23,9.408-6.241,14.758a90.364,90.364,0,0,0-1.323,12.877c-.138,3.173-.027,6.343-.174,9.51a15.2,15.2,0,0,1-.821,4.808,3.556,3.556,0,0,1-1.674,2.106c-.493.244-.785.11-.922-.4-.978-3.614-1.929-7.236-2.934-10.843-.785-2.815-1.227-5.718-2.187-8.488-.532-2.672-1.153-5.33-1.579-8.019-1.3-8.231-1.321-16.386,1.93-24.253a26.9,26.9,0,0,1,11.966-13.8,1.324,1.324,0,0,0,.693-.832c1.483-5.2,5.113-8.591,9.582-11.239a67.14,67.14,0,0,1,10.38-4.839c.152-.058.313-.095.6-.181a3,3,0,0,1-.723,1.264,9.122,9.122,0,0,0-1.848,4.164c-.084.655.08,1,.838.728,4.6-1.624,8.393-4.22,10.614-8.726.2-.4.426-.573.87-.483,5.9,1.2,11.568,2.949,16.484,6.6a21.99,21.99,0,0,1,7.752,10.564,1.5,1.5,0,0,0,1.011,1.012c7.719,2.877,12.777,8.383,15.706,15.971a41.565,41.565,0,0,1,2.351,18.018,90.313,90.313,0,0,1-1.913,13.133,10.478,10.478,0,0,0-.124,1.118c-.784,2.323-1.127,4.758-1.793,7.112a101.021,101.021,0,0,1-3.819,11.653c-.318.757-.552.806-1.115.253a6.325,6.325,0,0,1-1.617-4,68.335,68.335,0,0,1-.1-11.031,42.188,42.188,0,0,0-.364-9.694,7.945,7.945,0,0,0-2.036-3.6,37.366,37.366,0,0,1-8.223-18.984,46.212,46.212,0,0,1-.554-7.937c.047-1.8.248-3.6.38-5.395l.169-.32-.111-.056Z" style="fill:#606060"/><path d="M224.348,275.493a12.9,12.9,0,0,1-3.8-.778,30.434,30.434,0,0,1-6.671-4.044,83.349,83.349,0,0,1-6.787-5.693c-2.68-2.375-4.968-5.129-7.522-7.621-1.7-1.657-3.228-3.464-4.881-5.158a13.587,13.587,0,0,1-2.095-2.78,33.669,33.669,0,0,1-3.018-5.995c-.69-2.086-1.528-4.133-2.224-6.221a36.345,36.345,0,0,1-1.493-6.174c-.107-.726-.257-1.446-.388-2.168-.449-2.469-.77-4.95-.978-7.455-.183-2.213-.317-4.435-.656-6.636a7.531,7.531,0,0,1-.053-1.468c.126-2.882-.352-5.748-.225-8.629.043-.977.09-1.957.069-2.934-.061-2.737.234-5.459.343-8.188.058-1.458.487-2.9.59-4.359a49.846,49.846,0,0,1,.922-5.482,46.577,46.577,0,0,1,2.168-8.211c.415-1.087.854-2.165,1.339-3.214a5.719,5.719,0,0,1,3.324-2.99,23.565,23.565,0,0,1,3.244-.9c2.016-.442,3.966-1.139,5.98-1.574,2.17-.469,4.364-.826,6.543-1.259a64.92,64.92,0,0,1,7.591-.911,59.067,59.067,0,0,1,8.851-.481c3.746.265,7.509.278,11.254.553a91.475,91.475,0,0,1,12.884,1.95c1.332.292,2.686.5,4.037.692a13.868,13.868,0,0,1,4.159,1.565c2.289,1.139,3.745,3.078,5.141,5.111a19.127,19.127,0,0,1,2.41,4.859c.479,1.446,1.295,2.768,1.645,4.274.651,2.8,1.341,5.591,1.714,8.453.363,2.777.417,5.571.6,8.358a80.218,80.218,0,0,1-.065,9.177c-.11,2.2-.243,4.4-.446,6.592-.239,2.575-.419,5.156-.906,7.713-.43,2.258-.537,4.575-1.025,6.831-.387,1.787-.662,3.591-1.163,5.362-.538,1.9-1.074,3.8-1.666,5.685-.2.621-.416,1.236-.661,1.84a27.368,27.368,0,0,1-3.348,6.365,55.878,55.878,0,0,1-4.142,5.372c-2.082,2.16-4.227,4.24-6.515,6.2-3.257,2.784-6.474,5.624-9.791,8.33a28.755,28.755,0,0,1-9.446,5.2c-.619.2-1.258.333-1.888.5-.379-.187-.787.184-1.163-.063a6.378,6.378,0,0,0,1.469-3.37c.336-1.826.714-3.645,1-5.479a21.081,21.081,0,0,0-.206-8.693,21.352,21.352,0,0,1-.5-2.082c-.227-1.422.525-2.508,1.322-3.567a9.264,9.264,0,0,0,1.022-1.314h-9.857c.437.536.8,1,1.18,1.446a4.59,4.59,0,0,1,.959,4.73,17.254,17.254,0,0,0-.732,6.782,71.239,71.239,0,0,0,1.623,9.534,4.341,4.341,0,0,0,1.14,2Zm36.835-85.335a.274.274,0,0,0-.09-.074l-.287-.706a6.884,6.884,0,0,0-.952-2.423A12.712,12.712,0,0,0,255.682,182a11.785,11.785,0,0,0-9.334-1.551,26.5,26.5,0,0,0-9.021,3.825,9.577,9.577,0,0,0-1.735,1.308.192.192,0,0,0,.259.033,37.084,37.084,0,0,1,11.162-2.3c.25-.019.541-.11.724.18a24,24,0,0,0-6.826,2.09,25.451,25.451,0,0,0-8.872,6.6,1.178,1.178,0,0,0-.231,1.4,1.211,1.211,0,0,0,1.259.581,3.716,3.716,0,0,0,1.585-.383c-.082.23-.148.467-.248.689a37.669,37.669,0,0,0-2.577,7.715c-.046.221-.2.453.028.765.233-.316.444-.6.659-.89a36.059,36.059,0,0,1,11.041-10.185,20.076,20.076,0,0,1,15.54-2.17,8.381,8.381,0,0,0,1.767.48l.058.015.06,0,.148.166c.017.1.093.145.149.069C261.359,190.327,261.285,190.227,261.183,190.158Zm-74.054,17.668a.6.6,0,0,0-.464.5c.353-.009.584-.107.67-.429l.173-.121a8.466,8.466,0,0,1,2.978-1.181c.163-.014.407-.129.47.1.05.187-.2.224-.328.3a18.132,18.132,0,0,0-4.171,3.039,2.14,2.14,0,0,0-.973,1.223,3.492,3.492,0,0,0,1.124-1.04,13.137,13.137,0,0,1,3.926-2.341,6.058,6.058,0,0,1,5.7.28,9.24,9.24,0,0,0,2.579.945,23.634,23.634,0,0,0,13.224-.478,10.009,10.009,0,0,0,3.82-2.136c1.079-.987,1.31-1.7.516-3.332a5.551,5.551,0,0,0-2.264-2.272,20.1,20.1,0,0,0-12.547-2.6,7.422,7.422,0,0,0-5.286,2.737c-.323.4-.66.778-1,1.163a16.132,16.132,0,0,1-2.418,2.507,2.294,2.294,0,0,1-3.221-.139,9.245,9.245,0,0,1-1.823-2.368,2.84,2.84,0,0,0-.734-1.283,2.687,2.687,0,0,0,.555,1.438,9,9,0,0,0,1.957,3.1c.369.347.262.473-.108.685a7.115,7.115,0,0,0-2.079,1.55Zm28.637-13.863c.5.071,1,.177,1.51.2a1.151,1.151,0,0,0,1.006-1.963,21.523,21.523,0,0,0-4.267-3.919,27.154,27.154,0,0,0-10.794-4.7c.371-.271.785-.142,1.185-.119.243.014.484.065.728.086a30.228,30.228,0,0,1,9.228,2.037c.1.04.21.158.367-.1a1.839,1.839,0,0,1-.246-.136,26.063,26.063,0,0,0-10.879-4.97,11.679,11.679,0,0,0-8.623,1.375,12.7,12.7,0,0,0-4.564,5.25,7.253,7.253,0,0,0-.906,2.307c-.034.228-.269.372-.256.619-.155.133-.351.274-.2.5.078.118.218-.017.325-.064a16.747,16.747,0,0,1,6.5-1.346,21.935,21.935,0,0,1,13.369,4.444,39.691,39.691,0,0,1,8.782,8.907c.123.166.177.426.454.433.128-.138.06-.28.033-.414a37.852,37.852,0,0,0-1.466-5.121C216.647,196.154,216.078,195.108,215.765,193.963Zm26.6,63.882a3.616,3.616,0,0,0,1.127-1.019,142.082,142.082,0,0,0,9.367-11.4,75.1,75.1,0,0,0,7.824-13.132,43.486,43.486,0,0,0,2.565-7.978c.022-.092.064-.2-.062-.268-.2.031-.305.2-.417.331a8.9,8.9,0,0,1-7.337,3.158,23.492,23.492,0,0,1-13.327-4.463c-.635-.437-.823-.433-1.341.129a1.028,1.028,0,0,0,.088,1.572,8.886,8.886,0,0,0,3.558,2.091,32.511,32.511,0,0,0,9.137,1.926c-.08.118-.152.242-.241.353-1.957,2.435-3.953,4.84-5.853,7.319a2.8,2.8,0,0,1-2.345,1.156,46.154,46.154,0,0,1-8.418-.6,4.332,4.332,0,0,1-2.5-1.321,34.523,34.523,0,0,1-2.662-3.278c-.722-.954-.393-.934-1.642-.486a12.208,12.208,0,0,1-9.706-.132c-.345-.163-.512-.064-.707.2a37.659,37.659,0,0,1-3.526,3.988,4.749,4.749,0,0,1-2.786,1.395,45.959,45.959,0,0,1-9.229.167,2.05,2.05,0,0,1-1.761-1.055c-1.5-2.6-2.965-5.218-4.443-7.829a37.615,37.615,0,0,0,6.982-1.267,15.716,15.716,0,0,0,5.049-2.293,2.14,2.14,0,0,0,.8-.983,1.056,1.056,0,0,0-.466-1.277c-.273-.2-.526-.363-.872-.086a17.913,17.913,0,0,1-3.394,2.069,22.533,22.533,0,0,1-10.426,2.581,9.034,9.034,0,0,1-6.735-2.741c-.224-.239-.422-.785-.715-.615s0,.668.085,1.009a46.839,46.839,0,0,0,5.646,13.382,113.232,113.232,0,0,0,14.253,18.587.383.383,0,0,0,.442.182c-1.644-2.3-3.225-4.588-4.713-6.941s-2.925-4.77-4.21-7.276a30.043,30.043,0,0,0,5.079,3.409c2.369,1.209,4.811,1.962,5.725,1.807-.665-.376-1.492-.388-2.223-.706a27,27,0,0,1-8.226-5.56,16.285,16.285,0,0,1-3.48-4.613c-1.294-2.731-2.627-5.445-3.862-8.2-.158-.353-.6-.884-.307-1.064.315-.2.872.129,1.247.428.032.025.066.048.1.071,1.752,3.184,3.535,6.351,5.247,9.556a7.483,7.483,0,0,0,6.851,3.976c4.079.138,8.169-.029,12.25.072a3.21,3.21,0,0,0,2.8-1.353c.09-.111.184-.219.27-.333,1.152-1.535,2.311-3.065,3.448-4.61a1.057,1.057,0,0,1,.987-.457,1.468,1.468,0,0,1,1.118.652,60.926,60.926,0,0,1,4.311,5.564,1.03,1.03,0,0,0,.962.507q7.137-.018,14.274-.007a2.953,2.953,0,0,0,.836-.15,5.726,5.726,0,0,0,2.611-1.748,30.666,30.666,0,0,0,3.41-4.624c1.479-2.373,3-4.716,4.51-7.072.353-.1.705-.2,1.059-.3.168-.045.359-.218.506-.037.131.162-.033.346-.087.515a1.907,1.907,0,0,1-.1.225c-1.018,2.185-2.016,4.379-3.065,6.549a15.753,15.753,0,0,1-1.728,3.166,33.887,33.887,0,0,1-3.838,4.119,21.746,21.746,0,0,1-9.337,5.289.683.683,0,0,0-.522.288,22.867,22.867,0,0,0,11.8-6.061.447.447,0,0,1-.042.3,145.178,145.178,0,0,1-7.835,12.655,25.625,25.625,0,0,0-1.834,2.6Zm20.376-55.009a17.022,17.022,0,0,1-1.323,1.751c-1.33,1.368-2.519,1.434-3.961.192a7.794,7.794,0,0,1-.741-.73c-.732-.825-1.472-1.643-2.171-2.5a7.53,7.53,0,0,0-5.221-2.865,21.056,21.056,0,0,0-4.4-.062,18.992,18.992,0,0,0-8.284,2.6,5.592,5.592,0,0,0-2.633,3.032,2.093,2.093,0,0,0,.506,2.305,8.986,8.986,0,0,0,2.374,1.71,21.727,21.727,0,0,0,9.83,1.913,16.986,16.986,0,0,0,7.881-1.734,5.963,5.963,0,0,1,4.732-.462,13.166,13.166,0,0,1,4.736,2.6,3.227,3.227,0,0,0,1.118,1.013c-.275-.489-.449-1.061-1.083-1.228-1.211-1.454-2.907-2.274-4.524-3.325a1.584,1.584,0,0,1,1.013-.016,8.453,8.453,0,0,1,2.987,1.471,1.11,1.11,0,0,0,.86.55c-.26-.377-.418-.712-.842-.756a10.827,10.827,0,0,0-2.485-1.849c-.232-.116-.463-.231-.135-.519a7.142,7.142,0,0,0,1.868-2.89,3.137,3.137,0,0,0,.732-1.677A3.892,3.892,0,0,0,262.745,202.835Zm-49.808,25.957a.656.656,0,0,0,.011-.14c-.068-.193-.128-.388-.208-.576a4.318,4.318,0,0,1,.807-4.84c.854-.993,1.822-1.874,2.763-2.782.485-.468.981-.924,1.476-1.382.2-.182.409-.382.7-.278s.3.421.327.676a3.63,3.63,0,0,1-.026.791,32.426,32.426,0,0,0-.414,5.736,4.614,4.614,0,0,0,2.03,3.9c3.01,1.987,6.072,1.812,9.206.373a4.572,4.572,0,0,0,2.707-4.243,21.735,21.735,0,0,0-.206-3.964,16.118,16.118,0,0,1-.2-2.623c.012-.247.01-.507.277-.635s.47.03.653.2a49.07,49.07,0,0,1,4.41,4.331,3.934,3.934,0,0,1,.882,4.046c-.139.382-.221.785-.361,1.3,1.678-2.106,1.809-4,.448-6.144a20.818,20.818,0,0,0-1.466-1.961,26.733,26.733,0,0,1-4.538-7.519,32.28,32.28,0,0,1-1.884-10.565c-.011-.436,0-.872,0-1.308l-.159-.007c-.046.255-.1.508-.135.764-.361,2.985-.4,5.988-.469,8.987-.043,1.9.029,3.8.1,5.7s.188,3.792.433,5.677a32.545,32.545,0,0,1,.517,4.006,2.49,2.49,0,0,1-1.357,2.49,8.576,8.576,0,0,1-7.9-.056,2.036,2.036,0,0,1-1.194-1.8,8.588,8.588,0,0,1,.033-2.017,61.912,61.912,0,0,0,.837-8.526,104.89,104.89,0,0,0-.309-13.89,3.8,3.8,0,0,0-.323-1.562,3.873,3.873,0,0,0-.051.791,34.793,34.793,0,0,1-.385,5.494,24.808,24.808,0,0,1-3.694,10.168c-.944,1.436-2.012,2.777-3.073,4.126C211.261,224,210.816,225.8,212.937,228.792Zm12.514,13.843q-4.628,0-9.255,0a1.61,1.61,0,0,0-.783.089c-.205.107-.406.245-.394.5s.254.284.451.333a19.734,19.734,0,0,0,2.845.421,94.112,94.112,0,0,0,10.716.249,26.413,26.413,0,0,0,6.318-.718c.214-.056.587-.028.572-.339-.016-.34-.336-.487-.663-.525a4.907,4.907,0,0,0-.551-.01Zm8.921-13.881a5.261,5.261,0,0,0-2.31.892,1.247,1.247,0,0,0-.455.907c-.04.269.079.46.361.445a4.39,4.39,0,0,0,2.982-1.059.716.716,0,0,0,.27-.816C235.08,228.787,234.752,228.772,234.372,228.754Zm-16.086,1.857c.489.045.63-.193.506-.634a1.217,1.217,0,0,0-.518-.806,5.843,5.843,0,0,0-2.046-.789c-.4-.048-.826-.085-1.016.347s.151.73.448.978A4.724,4.724,0,0,0,218.286,230.611Z" style="fill:#f0f0f0"/><path d="M226.13,275.088c.375.247.784-.124,1.163.063-.5.356-1.113.478-1.63.859-.471.347-1.014.021-1.315-.517l.2-.416C225.329,275.773,225.329,275.773,226.13,275.088Z" style="fill:#979797"/><path d="M257.395,228.545c-1.506,2.356-3.031,4.7-4.51,7.072a30.666,30.666,0,0,1-3.41,4.624,5.726,5.726,0,0,1-2.611,1.748,2.953,2.953,0,0,1-.836.15q-7.137,0-14.274.007a1.03,1.03,0,0,1-.962-.507,60.926,60.926,0,0,0-4.311-5.564,1.468,1.468,0,0,0-1.118-.652,1.057,1.057,0,0,0-.987.457c-1.138,1.545-2.3,3.075-3.448,4.61-.086.114-.18.222-.27.333a3.21,3.21,0,0,1-2.8,1.353c-4.082-.1-8.171.066-12.25-.072a7.483,7.483,0,0,1-6.851-3.976c-1.712-3.205-3.495-6.372-5.247-9.556a.435.435,0,0,1,.445-.132,32.464,32.464,0,0,0,3.777.232c1.478,2.612,2.941,5.231,4.443,7.829a2.05,2.05,0,0,0,1.761,1.055,45.959,45.959,0,0,0,9.229-.167,4.749,4.749,0,0,0,2.786-1.395,37.659,37.659,0,0,0,3.526-3.988c.195-.266.362-.365.707-.2a12.208,12.208,0,0,0,9.706.132c1.249-.448.921-.468,1.642.486a34.523,34.523,0,0,0,2.662,3.278,4.332,4.332,0,0,0,2.5,1.321,46.154,46.154,0,0,0,8.418.6,2.8,2.8,0,0,0,2.345-1.156c1.9-2.479,3.9-4.884,5.853-7.319.089-.111.161-.235.241-.353A28.5,28.5,0,0,0,257.395,228.545Z" style="fill:#030303"/><path d="M212.937,228.792c-2.121-3-1.676-4.8.261-7.258,1.06-1.348,2.129-2.69,3.073-4.126a24.808,24.808,0,0,0,3.694-10.168,34.793,34.793,0,0,0,.385-5.494,3.873,3.873,0,0,1,.051-.791,3.8,3.8,0,0,1,.323,1.562,104.89,104.89,0,0,1,.309,13.89,61.912,61.912,0,0,1-.837,8.526,8.588,8.588,0,0,0-.033,2.017,2.036,2.036,0,0,0,1.194,1.8,8.576,8.576,0,0,0,7.9.056,2.49,2.49,0,0,0,1.357-2.49,32.545,32.545,0,0,0-.517-4.006c-.245-1.886-.358-3.781-.433-5.677s-.146-3.8-.1-5.7c.067-3,.108-6,.469-8.987.031-.256.089-.509.135-.764l.159.007c0,.436-.009.872,0,1.308a32.28,32.28,0,0,0,1.884,10.565,26.733,26.733,0,0,0,4.538,7.519,20.818,20.818,0,0,1,1.466,1.961c1.361,2.142,1.23,4.038-.448,6.144.141-.512.222-.915.361-1.3a3.934,3.934,0,0,0-.882-4.046,49.07,49.07,0,0,0-4.41-4.331c-.183-.173-.382-.332-.653-.2s-.264.388-.277.635a16.118,16.118,0,0,0,.2,2.623,21.735,21.735,0,0,1,.206,3.964,4.572,4.572,0,0,1-2.707,4.243c-3.133,1.439-6.2,1.614-9.206-.373a4.614,4.614,0,0,1-2.03-3.9,32.426,32.426,0,0,1,.414-5.736,3.63,3.63,0,0,0,.026-.791c-.026-.254-.025-.567-.327-.676s-.5.1-.7.278c-.495.458-.991.914-1.476,1.382-.94.908-1.908,1.789-2.763,2.782a4.318,4.318,0,0,0-.807,4.84c.08.187.14.383.208.576A.656.656,0,0,1,212.937,228.792Z" style="fill:#979797"/><path d="M226.13,275.088c-.8.685-.8.685-1.587-.011a4.341,4.341,0,0,1-1.14-2,71.239,71.239,0,0,1-1.623-9.534,17.254,17.254,0,0,1,.732-6.782,4.59,4.59,0,0,0-.959-4.73c-.378-.449-.743-.909-1.18-1.446h9.857a9.264,9.264,0,0,1-1.022,1.314c-.8,1.06-1.549,2.145-1.322,3.567a21.352,21.352,0,0,0,.5,2.082,21.081,21.081,0,0,1,.206,8.693c-.281,1.834-.659,3.654-1,5.479A6.378,6.378,0,0,1,226.13,275.088Z" style="fill:#030303"/><path d="M257.395,228.545a28.5,28.5,0,0,1-3.845.249,32.511,32.511,0,0,1-9.137-1.926,8.886,8.886,0,0,1-3.558-2.091,1.028,1.028,0,0,1-.088-1.572c.518-.562.706-.566,1.341-.129a23.492,23.492,0,0,0,13.327,4.463,8.9,8.9,0,0,0,7.337-3.158c.112-.136.217-.3.417-.331.126.069.084.176.062.268a43.486,43.486,0,0,1-2.565,7.978,75.1,75.1,0,0,1-7.824,13.132,142.082,142.082,0,0,1-9.367,11.4,3.616,3.616,0,0,1-1.127,1.019l0,0a25.644,25.644,0,0,1,1.834-2.6,145.178,145.178,0,0,0,7.835-12.655.447.447,0,0,0,.042-.3,22.867,22.867,0,0,1-11.8,6.061.683.683,0,0,1,.522-.288,21.746,21.746,0,0,0,9.337-5.289,33.887,33.887,0,0,0,3.838-4.119,15.753,15.753,0,0,0,1.728-3.166c1.049-2.17,2.046-4.365,3.065-6.549a1.907,1.907,0,0,0,.1-.225c.054-.17.218-.354.087-.515-.147-.181-.338-.008-.506.037C258.1,228.344,257.748,228.446,257.395,228.545Z" style="fill:#979797"/><path d="M197.73,228.671a32.464,32.464,0,0,1-3.777-.232.435.435,0,0,0-.445.132c-.033-.024-.067-.046-.1-.071-.375-.3-.932-.624-1.247-.428-.288.18.149.711.307,1.064,1.236,2.759,2.568,5.472,3.862,8.2a16.285,16.285,0,0,0,3.48,4.613,27,27,0,0,0,8.226,5.56c.731.318,1.558.33,2.223.706-.913.155-3.356-.6-5.725-1.807A30.043,30.043,0,0,1,199.457,243c1.285,2.506,2.713,4.909,4.21,7.276s3.069,4.643,4.713,6.941a.383.383,0,0,1-.442-.182,113.232,113.232,0,0,1-14.253-18.587,46.839,46.839,0,0,1-5.646-13.382c-.08-.341-.382-.838-.085-1.009s.491.376.715.615a9.034,9.034,0,0,0,6.735,2.741,22.533,22.533,0,0,0,10.426-2.581,17.913,17.913,0,0,0,3.394-2.069c.345-.277.6-.118.872.086a1.056,1.056,0,0,1,.466,1.277,2.14,2.14,0,0,1-.8.983,15.716,15.716,0,0,1-5.049,2.293A37.615,37.615,0,0,1,197.73,228.671Z" style="fill:#979797"/><path d="M203.221,183.585a27.154,27.154,0,0,1,10.794,4.7,21.523,21.523,0,0,1,4.267,3.919,1.151,1.151,0,0,1-1.006,1.963c-.505-.025-1.007-.132-1.51-.2l.008.019-.134-.2c-.206-.13-.416-.254-.616-.391a46.924,46.924,0,0,0-7.071-4,25.607,25.607,0,0,0-10.22-2.675,10.622,10.622,0,0,0-7.558,2.61c-.265.235-.452.658-.921.607-.012-.247.222-.391.256-.619.213-.08.28-.287.391-.454a11.457,11.457,0,0,1,9.837-5.475c.983-.019,1.952.134,2.93.129l.352.045Z" style="fill:#030303"/><path d="M260.98,190.2l-.06,0-.058-.015a1.282,1.282,0,0,0-.409-.524,9.906,9.906,0,0,0-6.511-2.912,21.519,21.519,0,0,0-9.561,1.759,49.371,49.371,0,0,0-9.729,5.272,3.716,3.716,0,0,1-1.585.383,1.211,1.211,0,0,1-1.259-.581,1.178,1.178,0,0,1,.231-1.4,25.451,25.451,0,0,1,8.872-6.6,24,24,0,0,1,6.826-2.09c.628-.035,1.256-.074,1.885-.1a11.571,11.571,0,0,1,9.232,3.5c.745.759,1.289,1.668,1.952,2.487l.287.706Z" style="fill:#030303"/><path d="M189.253,189.932c.47.05.656-.372.921-.607a10.622,10.622,0,0,1,7.558-2.61,25.607,25.607,0,0,1,10.22,2.675,46.924,46.924,0,0,1,7.071,4c.2.138.41.261.616.391l.134.2-.008-.019c.313,1.145.882,2.192,1.279,3.306a37.852,37.852,0,0,1,1.466,5.121c.027.134.1.276-.033.414-.277-.007-.331-.267-.454-.433a39.691,39.691,0,0,0-8.782-8.907,21.935,21.935,0,0,0-13.369-4.444,16.747,16.747,0,0,0-6.5,1.346c-.107.047-.246.182-.325.064C188.9,190.206,189.1,190.064,189.253,189.932Z" style="fill:#979797"/><path d="M234.651,193.785a49.371,49.371,0,0,1,9.729-5.272,21.519,21.519,0,0,1,9.561-1.759,9.906,9.906,0,0,1,6.511,2.912,1.282,1.282,0,0,1,.409.524,8.381,8.381,0,0,1-1.767-.48,20.076,20.076,0,0,0-15.54,2.17,36.059,36.059,0,0,0-11.041,10.185c-.215.285-.425.574-.659.89-.232-.312-.074-.544-.028-.765a37.669,37.669,0,0,1,2.577-7.715C234.5,194.252,234.57,194.015,234.651,193.785Z" style="fill:#979797"/><path d="M202.667,183.513c-.979,0-1.947-.148-2.93-.129a11.457,11.457,0,0,0-9.837,5.475c-.111.167-.178.374-.391.454a7.253,7.253,0,0,1,.906-2.307,12.7,12.7,0,0,1,4.564-5.25,11.679,11.679,0,0,1,8.623-1.375,26.063,26.063,0,0,1,10.879,4.97,1.839,1.839,0,0,0,.246.136c-.157.26-.272.142-.367.1a30.228,30.228,0,0,0-9.228-2.037c-.243-.021-.484-.072-.728-.086-.4-.023-.814-.152-1.185.119l-.2-.028C202.933,183.3,202.819,183.26,202.667,183.513Z" style="fill:#979797"/><path d="M260.806,189.378c-.664-.818-1.208-1.727-1.952-2.487a11.571,11.571,0,0,0-9.232-3.5c-.629.029-1.257.068-1.885.1-.184-.289-.474-.2-.724-.18a37.084,37.084,0,0,0-11.162,2.3.192.192,0,0,1-.259-.033,9.577,9.577,0,0,1,1.735-1.308,26.5,26.5,0,0,1,9.021-3.825A11.785,11.785,0,0,1,255.682,182a12.712,12.712,0,0,1,4.172,4.958A6.884,6.884,0,0,1,260.806,189.378Z" style="fill:#979797"/><path d="M225.451,242.636h9.255a4.907,4.907,0,0,1,.551.01c.327.037.647.185.663.525.015.311-.357.284-.572.339a26.413,26.413,0,0,1-6.318.718,94.112,94.112,0,0,1-10.716-.249,19.734,19.734,0,0,1-2.845-.421c-.2-.049-.439-.072-.451-.333s.189-.392.394-.5a1.61,1.61,0,0,1,.783-.089Q220.824,242.632,225.451,242.636Z" style="fill:#030303"/><path d="M234.372,228.754c.38.018.707.033.848.369a.716.716,0,0,1-.27.816A4.39,4.39,0,0,1,231.968,231c-.282.016-.4-.176-.361-.445a1.247,1.247,0,0,1,.455-.907A5.261,5.261,0,0,1,234.372,228.754Z" style="fill:#030303"/><path d="M218.285,230.611a4.724,4.724,0,0,1-2.624-.9c-.3-.248-.642-.538-.448-.978s.62-.4,1.016-.347a5.843,5.843,0,0,1,2.046.789,1.217,1.217,0,0,1,.518.806C218.915,230.417,218.774,230.655,218.285,230.611Z" style="fill:#030303"/><path d="M264.106,210.382c-1.211-1.454-2.907-2.274-4.524-3.325a1.584,1.584,0,0,1,1.013-.016,8.454,8.454,0,0,1,2.987,1.471,1.11,1.11,0,0,0,.86.55c-.26-.377-.418-.712-.842-.756a10.827,10.827,0,0,0-2.485-1.849c-.232-.116-.463-.231-.135-.519a7.142,7.142,0,0,0,1.868-2.89,3.137,3.137,0,0,0,.732-1.677,3.892,3.892,0,0,0-.835,1.465,17.022,17.022,0,0,1-1.323,1.751c-1.33,1.368-2.519,1.434-3.961.192a7.794,7.794,0,0,1-.741-.73c-.732-.825-1.472-1.643-2.171-2.5a7.53,7.53,0,0,0-5.221-2.865,21.056,21.056,0,0,0-4.4-.062,18.992,18.992,0,0,0-8.284,2.6,5.592,5.592,0,0,0-2.633,3.032,2.093,2.093,0,0,0,.506,2.305,8.986,8.986,0,0,0,2.374,1.71,21.727,21.727,0,0,0,9.83,1.913,16.986,16.986,0,0,0,7.881-1.734,5.963,5.963,0,0,1,4.732-.462,13.166,13.166,0,0,1,4.736,2.6,3.227,3.227,0,0,0,1.118,1.013C264.914,211.122,264.74,210.55,264.106,210.382Zm-9.019-4.151a8.03,8.03,0,0,1-3.831,1.523,34.087,34.087,0,0,1-9.825.325,10.154,10.154,0,0,1-4.976-1.716c-.171-.128-.4-.23-.309-.57a7.543,7.543,0,0,0,2.549.869,28.8,28.8,0,0,0,12.934-.178,7.962,7.962,0,0,0,2.1-.834c.639-.386.672-.705.173-1.256a11.349,11.349,0,0,0-6.276-3.186c-4.1-.92-7.741.332-11.156,2.52-.175.112-.355.216-.682.414a2.459,2.459,0,0,1,.762-.993,14.974,14.974,0,0,1,7.908-3.329,11.119,11.119,0,0,1,6.592.822,8.39,8.39,0,0,1,4.264,4.914A.523.523,0,0,1,255.086,206.231Z" style="fill:#343434"/><path d="M261.183,190.158c.1.069.176.169.095.278-.057.076-.132.027-.149-.07Z" style="fill:#979797"/><path d="M187.335,207.892l-.207-.067.284-.16.1.106Z" style="fill:#030303"/><path d="M261.183,190.158l-.054.208-.148-.166.113-.116A.272.272,0,0,1,261.183,190.158Z" style="fill:#030303"/><path d="M242.369,257.845l0,0Z" style="fill:#979797"/><path d="M214.418,205.766a6.373,6.373,0,0,1-2.965,1.5,25.845,25.845,0,0,1-8.826.5,23,23,0,0,1-4.709-.761,7.317,7.317,0,0,1-2.289-1.142.572.572,0,0,1-.216-.779,8.307,8.307,0,0,1,7.371-5.7,15.712,15.712,0,0,1,10.575,2.736c.784.523,1.038.823,1.138,1.244-.116.089-.169-.018-.25-.071-5.244-3.493-10.888-3.753-16.208-.322a5.634,5.634,0,0,0-1.281,1.209c-.324.394-.218.757.341,1.085a9.329,9.329,0,0,0,2.81,1.023,29,29,0,0,0,13.4-.312c.276-.07.539-.19.808-.286Z" style="fill:#f0f0f0"/><path d="M216.376,203.15a5.551,5.551,0,0,0-2.264-2.272,20.1,20.1,0,0,0-12.547-2.6,7.422,7.422,0,0,0-5.286,2.737c-.323.4-.66.778-1,1.163a16.132,16.132,0,0,1-2.418,2.507,2.294,2.294,0,0,1-3.221-.139,9.245,9.245,0,0,1-1.823-2.368,2.84,2.84,0,0,0-.734-1.283,2.687,2.687,0,0,0,.555,1.438,9,9,0,0,0,1.957,3.1c.369.347.262.473-.108.685a7.118,7.118,0,0,0-2.079,1.55l.1.106a8.469,8.469,0,0,1,2.978-1.181c.163-.014.407-.129.47.1.05.187-.2.224-.328.3a18.132,18.132,0,0,0-4.171,3.039,2.14,2.14,0,0,0-.973,1.223,3.492,3.492,0,0,0,1.124-1.04,13.137,13.137,0,0,1,3.926-2.341,6.058,6.058,0,0,1,5.7.28,9.239,9.239,0,0,0,2.579.945,23.634,23.634,0,0,0,13.224-.478,10.009,10.009,0,0,0,3.82-2.136C216.939,205.495,217.169,204.778,216.376,203.15Zm-4.923,4.112a25.845,25.845,0,0,1-8.826.5,23,23,0,0,1-4.709-.761,7.317,7.317,0,0,1-2.289-1.142.572.572,0,0,1-.216-.779,8.307,8.307,0,0,1,7.371-5.7,15.712,15.712,0,0,1,10.575,2.736c.784.523,1.038.823,1.138,1.244-.116.089-.169-.018-.25-.071-5.244-3.493-10.888-3.753-16.208-.322a5.634,5.634,0,0,0-1.281,1.209c-.324.394-.218.757.341,1.085a9.328,9.328,0,0,0,2.81,1.023,29,29,0,0,0,13.4-.312c.276-.07.539-.19.808-.286l.3.085A6.373,6.373,0,0,1,211.452,207.262Z" style="fill:#343434"/><path d="M187.335,207.892l-.207-.067a.6.6,0,0,0-.464.5C187.018,208.312,187.249,208.215,187.335,207.892Z" style="fill:#343434"/><path d="M236.145,205.793a7.543,7.543,0,0,0,2.549.869,28.8,28.8,0,0,0,12.934-.178,7.963,7.963,0,0,0,2.1-.834c.639-.386.672-.705.173-1.256a11.349,11.349,0,0,0-6.276-3.186c-4.1-.92-7.741.332-11.156,2.52-.175.112-.355.216-.682.414a2.46,2.46,0,0,1,.762-.993,14.974,14.974,0,0,1,7.908-3.329,11.12,11.12,0,0,1,6.592.822,8.39,8.39,0,0,1,4.264,4.914.523.523,0,0,1-.226.675,8.03,8.03,0,0,1-3.831,1.523,34.087,34.087,0,0,1-9.825.325,10.154,10.154,0,0,1-4.976-1.716C236.283,206.235,236.052,206.133,236.145,205.793Z" style="fill:#f0f0f0"/><path d="M202.667,183.513c.151-.253.266-.214.352.045Z" style="fill:#f0f0f0"/><path d="M215.773,193.982l-.134-.2Z" style="fill:#f0f0f0"/><path d="M249.078,161.052l.169-.32-.111-.056-.049.383a20.843,20.843,0,0,1-3.049,4.44,11.86,11.86,0,0,1-7.684,3.37c-4.908.364-9.824.022-14.733.206a51.95,51.95,0,0,0-11.419,1.413,24.72,24.72,0,0,0-12.194,7.65c-3.828,4.225-5.23,9.408-6.241,14.758a90.364,90.364,0,0,0-1.323,12.877c-.138,3.173-.027,6.343-.174,9.51a15.2,15.2,0,0,1-.821,4.808,3.556,3.556,0,0,1-1.674,2.106c-.493.244-.785.11-.922-.4-.978-3.614-1.929-7.236-2.934-10.843-.785-2.815-1.227-5.718-2.187-8.488-.532-2.672-1.153-5.33-1.579-8.019-1.3-8.231-1.321-16.386,1.93-24.253a26.9,26.9,0,0,1,11.966-13.8,1.324,1.324,0,0,0,.693-.832c1.483-5.2,5.113-8.591,9.582-11.239a67.14,67.14,0,0,1,10.38-4.839c.152-.058.313-.095.6-.181a3,3,0,0,1-.723,1.264,9.122,9.122,0,0,0-1.848,4.164c-.084.655.08,1,.838.728,4.6-1.624,8.393-4.22,10.614-8.726.2-.4.426-.573.87-.483,5.9,1.2,11.568,2.949,16.484,6.6a21.99,21.99,0,0,1,7.752,10.564,1.5,1.5,0,0,0,1.011,1.012Z" style="fill:#606060"/><polygon points="539.856 333.878 324.856 333.878 344.856 213.878 324.856 93.878 539.856 93.878 539.856 333.878" style="fill:#6dc35f"/><path d="M459.129,256.624c0,2.288.033,4.576-.014,6.862a1.555,1.555,0,0,0,.8,1.491,60.287,60.287,0,0,1,10.658,8.9,90.236,90.236,0,0,1,6.485,7.763,2.4,2.4,0,0,0,1.378.95,218.01,218.01,0,0,1,28.833,9.774,88.607,88.607,0,0,1,18.576,10.279c3.511,2.648,6.675,5.621,8.725,9.608a23.482,23.482,0,0,1,2.071,8.484,58.575,58.575,0,0,1-.207,11.732c-.045.473-.128.943-.193,1.414H332.871c-.364-2.6-.71-5.19-.9-7.809a48.608,48.608,0,0,1,.173-8.577,20.3,20.3,0,0,1,1.408-6.355,20.977,20.977,0,0,1,5.184-6.911c6.668-6.064,14.618-9.972,22.828-13.427a169.949,169.949,0,0,1,21.883-7.416,35.27,35.27,0,0,1,3.876-.913A2.917,2.917,0,0,0,389.3,281.2a85.62,85.62,0,0,1,9.242-10.391,46.081,46.081,0,0,1,8.329-6.4q0,7.429-.005,14.858a4.21,4.21,0,0,0,.733,2.4,15.529,15.529,0,0,0,4.711,4.162c3.515,2.345,7.244,4.353,10.7,6.8a22.791,22.791,0,0,1,7.878,9.835,33.306,33.306,0,0,1,2.145,8.234c.1-.683.149-1.355.263-2.026,1.275-7.509,5.428-13.1,11.563-17.35,2.827-1.959,5.894-3.55,8.685-5.573a19.875,19.875,0,0,0,4.827-4.52c.3-.431.822-.989.48-1.457-.256-.349-.952-.06-1.421.05a46.3,46.3,0,0,1-12.418,1.189,44.224,44.224,0,0,1-7.784-.926,43.48,43.48,0,0,1-14.516-6.141,46.846,46.846,0,0,1-12.846-12.283,14.489,14.489,0,0,1-2.3-4.265,9.032,9.032,0,0,1,1.049,1.031c5.08,5.657,11.151,9.62,18.745,10.989a30.331,30.331,0,0,0,12.448-.252,31.913,31.913,0,0,0,10.562-4.7,38.935,38.935,0,0,0,6.113-5.219C457.35,258.359,457.9,257.139,459.129,256.624Z" style="fill:#606060"/><path d="M459.129,256.624c-1.228.515-1.778,1.735-2.64,2.618a38.935,38.935,0,0,1-6.113,5.219,31.913,31.913,0,0,1-10.562,4.7,30.331,30.331,0,0,1-12.448.252c-7.594-1.369-13.666-5.331-18.745-10.989a9.032,9.032,0,0,0-1.049-1.031,14.489,14.489,0,0,0,2.3,4.265,46.846,46.846,0,0,0,12.846,12.283,43.48,43.48,0,0,0,14.516,6.141,44.224,44.224,0,0,0,7.784.926,46.3,46.3,0,0,0,12.418-1.189c.468-.11,1.165-.4,1.421-.05.342.468-.177,1.025-.48,1.457a19.875,19.875,0,0,1-4.827,4.52c-2.791,2.023-5.857,3.614-8.685,5.573-6.135,4.25-10.288,9.842-11.563,17.35-.114.671-.167,1.343-.263,2.026a33.306,33.306,0,0,0-2.145-8.234,22.791,22.791,0,0,0-7.878-9.835c-3.455-2.443-7.184-4.452-10.7-6.8a15.529,15.529,0,0,1-4.711-4.162,4.21,4.21,0,0,1-.733-2.4q.017-7.429.005-14.858c0-2.354-.027-4.71.021-7.063a3.137,3.137,0,0,0-.682-2.077,44.7,44.7,0,0,1-6.782-13.279,32.681,32.681,0,0,1-1.776-8.34c-.029-.467-.135-.751-.673-.5-1.527.707-2.736.059-3.756-1a15.837,15.837,0,0,1-3.152-5.207,38.057,38.057,0,0,1-2.394-9.151c-.534-3.969-.783-7.979.35-11.92.431-1.5.988-2.914,2.7-3.4.96,2.769,1.4,5.672,2.187,8.488,1.005,3.607,1.956,7.229,2.934,10.843.137.5.429.639.922.4a3.556,3.556,0,0,0,1.674-2.106,15.2,15.2,0,0,0,.821-4.808c.146-3.166.036-6.337.174-9.51a90.364,90.364,0,0,1,1.323-12.877c1.01-5.35,2.413-10.534,6.241-14.758a24.72,24.72,0,0,1,12.194-7.65,51.95,51.95,0,0,1,11.419-1.413c4.908-.183,9.824.158,14.733-.206a11.86,11.86,0,0,0,7.684-3.37,20.843,20.843,0,0,0,3.049-4.44l-.009-.007c-.132,1.8-.333,3.594-.38,5.395a46.212,46.212,0,0,0,.554,7.937,37.366,37.366,0,0,0,8.223,18.984,7.945,7.945,0,0,1,2.036,3.6,42.188,42.188,0,0,1,.364,9.694,68.335,68.335,0,0,0,.1,11.031,6.325,6.325,0,0,0,1.617,4c.563.552.8.5,1.115-.253a101.021,101.021,0,0,0,3.819-11.653c.667-2.354,1.009-4.789,1.793-7.112,1.548.546,1.905,1.971,2.264,3.288a26.06,26.06,0,0,1,.478,10.7,43.157,43.157,0,0,1-2.484,10.173c-.952,2.344-2.017,4.629-4.2,6.153a1.928,1.928,0,0,1-2.277.191c-.609-.395-.639-.157-.733.366a70.349,70.349,0,0,1-2.281,9.913,40.834,40.834,0,0,1-5.288,10.427C460.2,254.749,459.31,255.484,459.129,256.624Zm-51.847.124h-.089a1.156,1.156,0,0,0,.033.166c0,.008.059,0,.09,0Z" style="fill:#edcda7"/><g id="mouth"><path d="M448.491,236.6a14.881,14.881,0,0,1-.186,2.364,15.139,15.139,0,0,1-29.908,0,14.881,14.881,0,0,1-.186-2.364,15.115,15.115,0,0,1,.172-2.281h29.936A15.137,15.137,0,0,1,448.491,236.6Z" style="fill:#920025"/><path d="M448.492,236.6a14.861,14.861,0,0,1-.186,2.364H418.4a14.881,14.881,0,0,1-.186-2.364,15.115,15.115,0,0,1,.172-2.281H448.32A15.115,15.115,0,0,1,448.492,236.6Z" style="fill:#fff"/><path d="M439.709,250.349a15.187,15.187,0,0,1-12.717,0,6.367,6.367,0,0,1,12.717,0Z" style="fill:#c40031"/></g><circle cx="418.124" cy="202.351" r="3.713" style="fill:#606060"/><circle cx="448.381" cy="202.351" r="3.713" style="fill:#606060"/><path id="hair" d="M456.087,161.059a20.843,20.843,0,0,1-3.049,4.44,11.86,11.86,0,0,1-7.684,3.37c-4.908.364-9.824.022-14.733.206a51.95,51.95,0,0,0-11.419,1.413,24.72,24.72,0,0,0-12.194,7.65c-3.828,4.225-5.23,9.408-6.241,14.758a90.364,90.364,0,0,0-1.323,12.877c-.138,3.173-.027,6.343-.174,9.51a15.2,15.2,0,0,1-.821,4.808,3.556,3.556,0,0,1-1.674,2.106c-.493.244-.785.11-.922-.4-.978-3.614-1.929-7.236-2.934-10.843-.785-2.815-1.227-5.718-2.187-8.488-.532-2.672-1.153-5.33-1.579-8.019-1.3-8.231-1.321-16.386,1.93-24.253a26.9,26.9,0,0,1,11.966-13.8,1.324,1.324,0,0,0,.693-.832c1.483-5.2,5.113-8.591,9.582-11.239a67.14,67.14,0,0,1,10.38-4.839c.152-.058.313-.095.6-.181a3,3,0,0,1-.723,1.264,9.122,9.122,0,0,0-1.848,4.164c-.084.655.08,1,.838.728,4.6-1.624,8.393-4.22,10.614-8.726.2-.4.426-.573.87-.483,5.9,1.2,11.568,2.949,16.484,6.6a21.99,21.99,0,0,1,7.752,10.564,1.5,1.5,0,0,0,1.011,1.012c7.719,2.877,12.777,8.383,15.706,15.971a41.565,41.565,0,0,1,2.351,18.018,90.313,90.313,0,0,1-1.913,13.133,10.478,10.478,0,0,0-.124,1.118c-.784,2.323-1.127,4.758-1.793,7.112a101.021,101.021,0,0,1-3.819,11.653c-.318.757-.552.806-1.115.253a6.325,6.325,0,0,1-1.617-4,68.335,68.335,0,0,1-.1-11.031,42.188,42.188,0,0,0-.364-9.694,7.945,7.945,0,0,0-2.036-3.6,37.366,37.366,0,0,1-8.223-18.984,46.212,46.212,0,0,1-.554-7.937c.047-1.8.248-3.6.38-5.395l.169-.32-.111-.056Z" style="fill:#606060"/><rect x="369.319" y="419.378" width="22.703" height="10.848" transform="translate(-82.038 758.37) rotate(-83.924)" style="fill:#6dc35f"/><rect x="275.338" y="438.299" width="10.848" height="22.703" transform="translate(-95.197 75.929) rotate(-13.19)" style="fill:#34cccc"/><rect x="306.79" y="445.748" width="10.848" height="22.702" transform="translate(-227.69 579.25) rotate(-68.414)" style="fill:#ffd94d"/><rect x="309.556" y="433.157" width="20.26" height="9.679" transform="translate(-220.101 386.323) rotate(-48.407)" style="fill:#ffd94d"/><rect x="373.756" y="453.897" width="20.26" height="9.679" transform="translate(-214.031 441.308) rotate(-48.407)" style="fill:#ffd94d"/><rect x="341.143" y="441.773" width="20.26" height="9.679" transform="translate(-215.926 412.842) rotate(-48.407)" style="fill:#ffd94d"/><rect x="241.649" y="450.4" width="20.26" height="9.679" transform="translate(-255.824 341.333) rotate(-48.407)" style="fill:#ffd94d"/><rect x="289.534" y="445.346" width="20.26" height="9.679" transform="translate(-235.947 375.446) rotate(-48.407)" style="fill:#34cccc"/><rect x="326.594" y="444.493" width="20.26" height="9.679" transform="translate(-222.851 402.875) rotate(-48.407)" style="fill:#6dc35f"/><rect x="220.071" y="450.722" width="20.26" height="9.679" transform="translate(-263.319 325.304) rotate(-48.407)" style="fill:#ff4d79"/><rect x="321.276" y="426.391" width="20.26" height="9.679" transform="translate(-211.101 392.813) rotate(-48.407)" style="fill:#ff8c4d"/><rect x="317.75" y="443.04" width="20.26" height="9.679" transform="translate(-224.737 395.773) rotate(-48.407)" style="fill:#34cccc"/><rect x="179.083" y="443.093" width="9.679" height="20.26" transform="translate(-302.668 403.542) rotate(-62.082)" style="fill:#ff8c4d"/><rect x="357.651" y="443.608" width="9.679" height="20.26" transform="translate(-208.16 561.603) rotate(-62.082)" style="fill:#6dc35f"/><rect x="265.171" y="448.221" width="9.679" height="20.26" transform="translate(-261.418 482.339) rotate(-62.082)" style="fill:#ff8c4d"/><rect x="518.453" y="448.221" width="9.679" height="20.26" transform="translate(-126.723 706.144) rotate(-62.082)" style="fill:url(#linear-gradient)"/><rect x="258.157" y="431.89" width="9.679" height="20.26" transform="translate(-250.717 467.457) rotate(-62.082)" style="fill:#34cccc"/><rect x="298.245" y="433.601" width="9.679" height="20.26" transform="translate(-230.91 503.789) rotate(-62.082)" style="fill:#6dc35f"/><rect x="346.434" y="448.221" width="9.679" height="20.26" transform="translate(-218.202 554.144) rotate(-62.082)" style="fill:#ff4d79"/><rect x="291.286" y="448.539" width="9.679" height="20.26" transform="translate(-247.811 505.583) rotate(-62.082)" style="fill:#ff4d79"/><rect x="353.956" y="431.89" width="9.679" height="20.26" transform="translate(-199.772 552.106) rotate(-62.082)" style="fill:#ffd94d"/><rect x="434.867" y="450.844" width="9.679" height="20.26" transform="translate(-188.296 567.983) rotate(-56.023)" style="fill:#ffd94d"/><rect x="389.501" y="444.493" width="20.26" height="9.679" transform="translate(-201.704 449.922) rotate(-48.407)" style="fill:#ff8c4d"/><rect x="370.515" y="438.891" width="20.26" height="9.679" transform="translate(-86.809 92.626) rotate(-12.466)" style="fill:#ff4d79"/><rect x="313.191" y="457.314" width="20.26" height="9.679" transform="translate(-92.137 80.687) rotate(-12.466)" style="fill:#ffd94d"/><rect x="270.632" y="437.181" width="20.26" height="9.679" transform="translate(-88.795 71.026) rotate(-12.466)" style="fill:#ff4d79"/><rect x="399.845" y="453.511" width="20.26" height="9.679" transform="translate(-89.274 99.302) rotate(-12.466)" style="fill:#6dc35f"/><rect x="309.556" y="441.47" width="20.26" height="9.679" transform="translate(-88.803 79.529) rotate(-12.466)" style="fill:#ff4d79"/><rect x="332.082" y="452.259" width="20.26" height="9.679" transform="translate(-90.601 84.646) rotate(-12.466)" style="fill:#34cccc"/><rect x="146.474" y="38.37" width="10.559" height="21.117" transform="translate(-6.903 64.779) rotate(-23.576)" style="fill:#6dc35f"/><polygon points="25.5 8.45 1.17 11.03 0 0 24.6 0 25.5 8.45" style="fill:#ff4d79"/><rect x="97.612" y="24.737" width="10.488" height="20.975" transform="translate(59.724 135.023) rotate(-85.531)" style="fill:#34cccc"/><rect x="430.604" y="321.207" width="10.55" height="21.1" transform="translate(69.331 -75.301) rotate(10.722)" style="fill:#ff8c4d"/><path d="M84.61,164.77l-.48-2.17-2.63.67.26-2.7-2.13-.15-.25,2.69-2.43-1.02-.86,2.05,2.43,1.02-1.82,2.03,1.6,1.43,1.81-2.07,1.31,2.32,1.86-1.15-1.34-2.29Z" style="fill:#6dc35f"/><path d="M28.44,70.48l-.95-2.14-2.63,1.1-.32-2.93-2.37.2.34,2.88-2.83-.65-.45,2.24,2.81.64-1.43,2.43,2.06,1.2,1.42-2.43,1.89,2.21,1.75-1.48-1.94-2.22Z" style="fill:#6dc35f"/><path d="M220.91,353.58a3.655,3.655,0,0,0-.87-1.16,3.45,3.45,0,0,0-1.271-.74,3.325,3.325,0,0,0-1.479-.17,3.4,3.4,0,0,0-1.36.43,3.944,3.944,0,0,0-1.12.92,3.87,3.87,0,0,0-.74,1.33,3.713,3.713,0,0,0,.17,2.87,3.689,3.689,0,0,0,5.03,1.67,3.758,3.758,0,0,0,1.85-2.21,3.916,3.916,0,0,0,.18-1.51A4.039,4.039,0,0,0,220.91,353.58Z" style="fill:#6dc35f"/><path d="M67.18,74.72a3.594,3.594,0,0,0-4.44-2.62,3.612,3.612,0,0,0-2.21,1.71,3.771,3.771,0,0,0-.49,1.4,4.023,4.023,0,0,0,.08,1.43,3.6,3.6,0,0,0,.58,1.29,3.4,3.4,0,0,0,1.06.97,3.228,3.228,0,0,0,1.37.46,3.563,3.563,0,0,0,1.38-.12,3.971,3.971,0,0,0,1.26-.65,4.033,4.033,0,0,0,.98-1.11A3.669,3.669,0,0,0,67.18,74.72Z" style="fill:#ff4d79"/><rect x="82.384" y="97.571" width="10.694" height="21.388" transform="translate(173.461 -1.591) rotate(76.987)" style="fill:#ffd94d"/><rect x="290.853" y="0.856" width="10.53" height="21.059" transform="translate(188.92 287.654) rotate(-70.995)" style="fill:#6dc35f"/><rect x="388.135" y="13.146" width="12.273" height="24.546" transform="translate(1.373 -16.137) rotate(2.349)" style="fill:#6dc35f"/><rect x="310.7" y="13.765" width="10.576" height="21.153" transform="translate(1.327 -13.463) rotate(2.446)" style="fill:#34cccc"/><polygon points="237.93 13.5 229.21 19.76 216.68 2.33 219.92 0 228.23 0 237.93 13.5" style="fill:#ff8c4d"/><rect x="116.113" y="184.43" width="11.897" height="23.794" transform="translate(28.132 -14.909) rotate(7.897)" style="fill:#ff8c4d"/><rect x="286.286" y="67.308" width="11.163" height="22.326" transform="translate(-8.292 113.809) rotate(-21.763)" style="fill:#ff4d79"/><rect x="518.11" y="32.695" width="11.226" height="22.451" transform="translate(787.999 -410.362) rotate(115.395)" style="fill:#ff4d79"/><path d="M156.41,211.17l-3.03-.12,1-2.98-2.39-.88-.96,2.95-2.45-1.9-1.45,1.96,2.43,1.89-2.47,1.72,1.45,2.09,2.47-1.72.84,3,2.37-.66-.89-3.02,3.05.17Z" style="fill:#ffd94d"/><path d="M129.95,298.74l2.49-2.53-1.98-2.07-2.44,2.52-1.54-3.15-2.45,1.28,1.54,3.11-3.36.52.44,2.84,3.36-.52-.64,3.46,2.72.5.6-3.5,3.01,1.68,1.27-2.52Z" style="fill:#ffd94d"/><path d="M122.3,261.82a3.481,3.481,0,0,0-1.89-1.95,3.523,3.523,0,0,0-1.32-.23,3.739,3.739,0,0,0-1.34.28,3.7,3.7,0,0,0-1.19.79,3.486,3.486,0,0,0-1.11,2.46,3.5,3.5,0,0,0,3.47,3.57,3.512,3.512,0,0,0,2.49-1.03,3.465,3.465,0,0,0,.81-1.18,3.665,3.665,0,0,0,.3-1.36A3.47,3.47,0,0,0,122.3,261.82Z" style="fill:#ffd94d"/><path d="M397.14,127.4a4.552,4.552,0,0,0-.95-1.33,4.273,4.273,0,0,0-1.34-.88,4.171,4.171,0,0,0-1.61-.28,3.808,3.808,0,0,0-1.59.39,4.1,4.1,0,0,0-1.25.97,4.267,4.267,0,0,0-.81,1.39,4.347,4.347,0,0,0-.25,1.66,4.107,4.107,0,0,0,1.27,2.91,4.1,4.1,0,0,0,5.85-.2,4.289,4.289,0,0,0,.68-4.63Z" style="fill:#ffd94d"/><path d="M523.55,29.85l-.2-2.33-2.84.35.63-2.79-2.21-.43-.61,2.76-2.4-1.38-1.17,2.03,2.39,1.38-2.16,1.88,1.47,1.71,2.17-1.92,1.06,2.6,2.1-.95-1.1-2.58Z" style="fill:#6dc35f"/><path d="M194.26,27.59l-2.9-.57,1.51-2.53-2.02-1.14-1.49,2.52-1.91-2.13-1.8,1.61,1.9,2.13-2.72,1.13.89,2.16,2.74-1.19.2,2.89,2.36-.25-.24-2.88,2.92.6Z" style="fill:#ff4d79"/><path d="M79.25,16.41a3.367,3.367,0,0,0-.65-1.13,3.25,3.25,0,0,0-2.36-1.11,3.344,3.344,0,0,0-1.25.24,3.706,3.706,0,0,0-1.11.7,3.592,3.592,0,0,0-.8,1.11,3.4,3.4,0,0,0-.16,2.58,3.18,3.18,0,0,0,1.73,1.92,3.142,3.142,0,0,0,2.58.1,3.44,3.44,0,0,0,2.21-3.1A3.627,3.627,0,0,0,79.25,16.41Z" style="fill:#6dc35f"/><path d="M529.48,13.2a4.2,4.2,0,0,0-.95-1.21,4.267,4.267,0,0,0-1.39-.81,4,4,0,0,0-3.04.12,3.721,3.721,0,0,0-2.05,2.25,3.739,3.739,0,0,0,.18,3.04,4.079,4.079,0,0,0,3.89,2.22,4.261,4.261,0,0,0,1.51-.38,3.968,3.968,0,0,0,1.26-.89,3.919,3.919,0,0,0,1.02-2.89A3.864,3.864,0,0,0,529.48,13.2Z" style="fill:#6dc35f"/><path d="M367.78,38.15l-2.64-.13.91-2.58-2.07-.79-.87,2.56L361,35.52l-1.28,1.7,2.1,1.66-2.17,1.47,1.24,1.83,2.17-1.46.69,2.61,2.06-.54-.73-2.64,2.64.18Z" style="fill:#34cccc"/><path d="M533.38,41.12l1.22-3.01-2.36-.97-1.21,3.06-2.4-2.09-1.12,1.4-.51.64,2.43,2.04L526.7,44l1.41,2.25,2.68-1.82.8,3.14,2.45-.69-.8-3.11,2.91.15.22.01.14-2.65Z" style="fill:#34cccc"/><path d="M372.03,322.84a3.381,3.381,0,0,0-1.47-2.14,3.338,3.338,0,0,0-1.27-.52,3.714,3.714,0,0,0-1.33-.01,3.638,3.638,0,0,0-1.22.47,3.208,3.208,0,0,0-1.41,3.45,3.674,3.674,0,0,0,.53,1.2,3.446,3.446,0,0,0,.98.96,3.391,3.391,0,0,0,2.53.55,3.342,3.342,0,0,0,2.66-3.96Z" style="fill:#34cccc"/><path d="M357.97,68.28l-1.5-2.16-2.56,1.78-.87-3.1-2.44.68.91,3.12-3.14-.17-.04,2.59,3.14.12-1.03,3.08,2.46.91,1-3.06,2.53,1.97,1.5-2.03-2.52-1.95Z" style="fill:#ff8c4d"/><path d="M209.61,66.73l2.46-2.97-2.33-1.95-2.45,3.03-1.98-3.22-2.58,1.72,2.02,3.18-3.74,1.08.78,3.05,3.69-1.09-.21,3.84,3.021.09.21-3.81,3.49,1.31,1.11-2.95Z" style="fill:#ff8c4d"/><path d="M98.17,377.18l-3.13-.35,1.26-3.01-2.4-1.09-1.22,2.98-2.39-2.16-1.65,1.93,2.38,2.13-2.69,1.59,1.34,2.27,2.69-1.58.64,3.16,2.49-.5-.68-3.19,3.13.4Z" style="fill:#ff4d79"/><path d="M175.68,252.02l3.04-2.27-1.84-2.34-3.01,2.25-1.22-3.46-2.93,1.03,1.22,3.46-3.8.02v2.99l3.84-.06-1.18,3.53,2.93.85,1.13-3.54,3.17,2.15,1.81-2.52Z" style="fill:#ff4d79"/><path d="M259.39,335.49a2.815,2.815,0,0,0-1.08-2.021,2.977,2.977,0,0,0-2.21-.64,2.851,2.851,0,0,0-1.16.35,3.032,3.032,0,0,0-.92.74,2.812,2.812,0,0,0-.57,1.01,2.718,2.718,0,0,0-.14,1.17,2.777,2.777,0,0,0,.35,1.13,2.974,2.974,0,0,0,.75.86,3.408,3.408,0,0,0,1.04.53,3.246,3.246,0,0,0,1.21.11,3.029,3.029,0,0,0,2.04-1.04A2.806,2.806,0,0,0,259.39,335.49Z" style="fill:#ff4d79"/><rect x="551.519" y="62.637" width="10.397" height="20.793" transform="translate(7.967 191.951) rotate(-19.701)" style="fill:#ffd94d"/><polygon points="441.24 1.43 433.53 8.71 425.32 0 439.89 0 441.24 1.43" style="fill:#ffd94d"/><rect x="550.602" y="225.901" width="11.851" height="23.701" transform="translate(872.889 -278.159) rotate(98.385)" style="fill:#6dc35f"/><rect x="426.761" y="53.697" width="10.071" height="20.142" transform="translate(495.757 495.536) rotate(-106.827)" style="fill:#ff8c4d"/><rect x="474.929" y="52.643" width="11.318" height="22.636" transform="translate(16.205 203.26) rotate(-24.278)" style="fill:#ff4d79"/><rect x="437.428" y="85.799" width="12.994" height="25.987" transform="translate(399.329 551.386) rotate(-96.919)" style="fill:#ff4d79"/><path d="M587.73,33.69l-2.99-.45,1.3-2.66-2.25-1.1-1.3,2.65-2.15-2.16-1.72,1.69,2.21,2.17-2.7,1.31,1.17,2.17,2.66-1.36.57,3.04,2.46-.39-.58-2.99,3.01.46Z" style="fill:#ffd94d"/><path d="M562,134.48a3.017,3.017,0,0,0-1.03-.64,3.118,3.118,0,0,0-1.16-.2,2.8,2.8,0,0,0-1.13.24,2.855,2.855,0,0,0-.96.66,2.916,2.916,0,0,0-.62,1.01,2.86,2.86,0,0,0-.14,1.12,3.147,3.147,0,0,0,3.12,2.94,2.777,2.777,0,0,0,2.09-.92,2.817,2.817,0,0,0,.8-2.15A2.975,2.975,0,0,0,562,134.48Z" style="fill:#ffd94d"/><path d="M156.38,17.85l2.04-2.08-1.63-1.7-2,2.08-1.28-2.58-2,1.06,1.27,2.55-2.75.44.37,2.33,2.75-.44-.51,2.84,2.24.41.48-2.88,2.47,1.37,1.04-2.08Z" style="fill:#ffd94d"/><path d="M234.16,52.68l-2.9-.49,1.44-2.56-2.04-1.09-1.43,2.55-1.96-2.08-1.75,1.65,1.95,2.08-2.69,1.2.94,2.13,2.71-1.25.27,2.88,2.35-.32-.31-2.86,2.93.52Z" style="fill:#6dc35f"/><path d="M551.36,274.9a3.461,3.461,0,0,0-.53-1.05,3.175,3.175,0,0,0-.87-.76,2.881,2.881,0,0,0-1.1-.37,2.726,2.726,0,0,0-1.18.11,2.789,2.789,0,0,0-.98.55,3.4,3.4,0,0,0-.73.9,3.153,3.153,0,0,0-.36,1.15,2.979,2.979,0,0,0,.6,2.2,2.928,2.928,0,0,0,4.17.48,2.965,2.965,0,0,0,1.08-2.01A3.022,3.022,0,0,0,551.36,274.9Z" style="fill:#6dc35f"/><path d="M562.6,213.26a3.049,3.049,0,0,0-1.58-1.94,3.27,3.27,0,0,0-2.49-.23,3.342,3.342,0,0,0-1.18.62,3.535,3.535,0,0,0-.83.98,3.339,3.339,0,0,0-.4,1.2,3.079,3.079,0,0,0,.1,1.28,3.027,3.027,0,0,0,.61,1.15,3.156,3.156,0,0,0,.98.76,3.581,3.581,0,0,0,1.22.34,3.312,3.312,0,0,0,1.32-.13,3.235,3.235,0,0,0,1.97-1.54A3.046,3.046,0,0,0,562.6,213.26Z" style="fill:#6dc35f"/><path d="M400.38,56.25l2.22-2.13-1.72-1.7-2.2,2.11-1.32-2.67-2.26,1.12,1.32,2.67-3.05.4.3,2.41,3.09-.44-.61,2.97,2.45.39.56-2.96,2.77,1.41,1.21-2.21Z" style="fill:#34cccc"/><path d="M452.49,70.42l-1.69-2.31-2.93,2.22-1.08-3.39-2.75,1,1.14,3.36-3.67.14.03,2.97,3.62-.17L444.1,77.7l2.75.77,1.04-3.439,2.9,1.979,1.68-2.45-2.9-1.98Z" style="fill:#34cccc"/><path d="M442.4,110.22a3.38,3.38,0,0,0-2.38-1.43,3.429,3.429,0,0,0-2.69.71,3.74,3.74,0,0,0-1.28,3.88,3.881,3.881,0,0,0,.61,1.28,3.787,3.787,0,0,0,1.03.96,3.484,3.484,0,0,0,1.33.48,3.387,3.387,0,0,0,1.43-.09,3.65,3.65,0,0,0,1.22-.64,4.11,4.11,0,0,0,.91-1.07,3.869,3.869,0,0,0,.47-1.39A3.613,3.613,0,0,0,442.4,110.22Z" style="fill:#34cccc"/><path d="M554.45,199.65l-.98-2.11-2.7,1.18-.31-2.85-2.41.26.31,2.86-2.89-.66-.53,2.28,2.94.63-1.53,2.479,2.08,1.17,1.48-2.5,2.04,2.2,1.83-1.6-2.04-2.15Z" style="fill:#ff8c4d"/><path d="M511.49,318.72l-.53-2.21-2.7.56.23-2.84-2.3-.25-.2,2.82-2.58-1.14-.84,2.05,2.56,1.12-1.8,2.06,1.74,1.52,1.8-2.05,1.41,2.45,1.93-1.1-1.44-2.46Z" style="fill:#ff4d79"/><path d="M536.35,280.94,535,279.1l-2.34,1.77-.87-2.7-2.19.8.91,2.68-2.92.12.02,2.37,2.9-.14-.85,2.76,2.2.61.83-2.75L535,286.2l1.34-1.96-2.32-1.57Z" style="fill:#ff4d79"/><path d="M584.73,110.42a3.121,3.121,0,0,0-4-1.96,3.118,3.118,0,0,0-1.79,1.63,3.041,3.041,0,0,0-.32,1.24,3.419,3.419,0,0,0,.16,1.23,3.042,3.042,0,0,0,.59,1.07,3.018,3.018,0,0,0,2.19,1.07,3.153,3.153,0,0,0,1.18-.2,3.355,3.355,0,0,0,1.04-.65,3.437,3.437,0,0,0,.77-1.02A3.158,3.158,0,0,0,584.73,110.42Z" style="fill:#ff4d79"/><path d="M478.14,16.47a3.4,3.4,0,0,0-1.42-2.189,3.5,3.5,0,0,0-1.27-.561,3.784,3.784,0,0,0-1.34-.04,3.542,3.542,0,0,0-1.25.45,3.322,3.322,0,0,0-1.51,2.15,3.284,3.284,0,0,0,.01,1.29,3.689,3.689,0,0,0,1.47,2.22,3.43,3.43,0,0,0,2.54.61,3.133,3.133,0,0,0,2.21-1.38A3.175,3.175,0,0,0,478.14,16.47Z" style="fill:#ff4d79"/></svg>