<svg id="ilu" xmlns="http://www.w3.org/2000/svg" viewBox="0 0 100 28"><title>mojeid-logo-footer</title><path d="M99.182,11.269A10.956,10.956,0,0,1,88.226,22.225H79.291V17.75a20.938,20.938,0,0,1,4.382-4.1c.051-.037.154-.039.154.075v3.959h4.4v0a6.412,6.412,0,0,0,0-12.824V4.849h-4.4v5.174a27.619,27.619,0,0,1,8.257-2.191.609.609,0,0,1,.537.125.521.521,0,0,1,.129.332c.005.148-.079.315-.348.4A28.127,28.127,0,0,0,74.9,22.208H70.548V7.059H74.9V16.21a27.127,27.127,0,0,1,4.391-3.7V.313h8.936A10.956,10.956,0,0,1,99.182,11.269ZM17.9,6.489a4.832,4.832,0,0,0-4.6,2.53,4.2,4.2,0,0,0-4.141-2.53A4.363,4.363,0,0,0,4.99,8.92V7.014H.818V22.225H4.99V13.191c0-2.07.822-3.187,2.4-3.187,1.511,0,2.3,1.084,2.3,3.187v9.034H13.86V13.06c0-1.938.887-3.055,2.43-3.055,1.577,0,2.333.985,2.333,3.055v9.165H22.8V12.271c0-2.333-.3-3.384-1.216-4.37A4.874,4.874,0,0,0,17.9,6.489ZM41.74,14.767a8.069,8.069,0,0,1-8.312,7.983,7.885,7.885,0,0,1-8.245-8.114c0-4.8,3.416-8.148,8.311-8.148A7.982,7.982,0,0,1,41.74,14.767ZM37.534,14.7c0-2.726-1.577-4.468-4.041-4.468s-4.106,1.775-4.106,4.4,1.643,4.4,4.074,4.4A4.042,4.042,0,0,0,37.534,14.7ZM44.3,21.5c0,1.676-.821,2.661-2.234,2.661h-.624v3.811C41.9,28,42.33,28,42.559,28A6.307,6.307,0,0,0,47.2,26.358c.986-1.018,1.446-2.562,1.446-4.862V7.014H44.3Zm23.513-6.7c0,.1,0,.525-.032.821H55.889a4.06,4.06,0,0,0,7.49,1.446l.079.022,3.19,2.007A8.246,8.246,0,0,1,51.554,14.6,7.744,7.744,0,0,1,59.6,6.489,7.908,7.908,0,0,1,67.813,14.8Zm-4.3-1.577A3.708,3.708,0,0,0,59.634,10a3.6,3.6,0,0,0-3.745,3.219ZM72.723,5.25a2.6,2.6,0,1,0-2.6-2.6A2.6,2.6,0,0,0,72.723,5.25ZM46.475,0a2.6,2.6,0,1,0,2.6,2.6A2.6,2.6,0,0,0,46.475,0Z" style="fill:#fff"/></svg>