<svg id="ilu" xmlns="http://www.w3.org/2000/svg" viewBox="0 0 200 28"><title>reference-stin</title><ellipse cx="100" cy="20.962" rx="100" ry="7" style="fill:#d9dee3"/><rect x="55.845" y="6.604" width="8.424" height="16.849" transform="translate(77.459 74.442) rotate(-120.374)" style="fill:#ffd94d"/><rect x="134.254" y="1.459" width="10.607" height="21.214" transform="translate(49.407 -95.148) rotate(45)" style="fill:#6dc35f"/><rect x="116.271" y="2.972" width="10.238" height="20.476" transform="translate(46.727 109.83) rotate(-58.516)" style="fill:#ff4d79"/><path d="M166.467,16.992l2.213-.568.4,1.828-2.245.555,1.129,1.931-1.568.967-1.1-1.956-1.524,1.743-1.34-1.208,1.526-1.7-2.041-.855L162.638,16l2.041.855.207-2.258,1.794.124Z" style="fill:#6dc35f"/><path d="M117.539,20.894a2.564,2.564,0,0,1-2.058-.441,2.74,2.74,0,0,1-1.127-1.774,2.886,2.886,0,0,1,0-1.114,2.919,2.919,0,0,1,.39-.991,2.628,2.628,0,0,1,.716-.757,2.53,2.53,0,0,1,1.007-.417,2.56,2.56,0,0,1,1.076.021,2.749,2.749,0,0,1,.971.436,3,3,0,0,1,.754.773,2.837,2.837,0,0,1,.025,3.1A2.565,2.565,0,0,1,117.539,20.894Z" style="fill:#34cccc"/><rect x="150.016" y="7.518" width="8.996" height="17.992" transform="translate(135.811 -137.75) rotate(76.987)" style="fill:#ffd94d"/><rect x="101.266" y="4.946" width="8.897" height="17.794" transform="translate(0.687 -4.499) rotate(2.446)" style="fill:#34cccc"/><rect x="64.525" y="3.922" width="9.031" height="18.062" transform="translate(5.414 42.721) rotate(-35.698)" style="fill:#ff8c4d"/><rect x="90.776" y="0.63" width="10.008" height="20.017" transform="translate(2.37 -13.059) rotate(7.897)" style="fill:#ff8c4d"/><rect x="80.613" y="3.957" width="9.16" height="18.32" transform="translate(59.762 -69.243) rotate(64.087)" style="fill:#6dc35f"/><rect x="36.967" y="5.249" width="10.931" height="21.862" transform="translate(31.482 60.252) rotate(-96.919)" style="fill:#ff4d79"/><path d="M49.068,21.483a2.763,2.763,0,0,1-.3-2.247,2.952,2.952,0,0,1,1.388-1.79,3.109,3.109,0,0,1,1.129-.407,3.145,3.145,0,0,1,1.147.034,2.831,2.831,0,0,1,1.028.45,2.726,2.726,0,0,1,.79.868,2.758,2.758,0,0,1,.371,1.1,2.961,2.961,0,0,1-.088,1.144,3.232,3.232,0,0,1-.509,1.046,3.056,3.056,0,0,1-3.131,1.155A2.763,2.763,0,0,1,49.068,21.483Z" style="fill:#6dc35f"/></svg>